<svg id="Layer_1" data-name="Layer 1" xmlns="http://www.w3.org/2000/svg" viewBox="0 0 253.66 85"><defs><style>.cls-6{fill:#fff}</style></defs><path d="M0 16.46v1.65a89.06 89.06 0 0 0 1 11.44 85 85 0 0 1 36.54 47 66.86 66.86 0 0 0 19.3-15.4l-44-44c-4.26-.06-8.55-.28-12.84-.69Z" style="fill:#1c75bc"/><path d="M33.44 75.56A81.39 81.39 0 0 0 2.06 34.51a66.42 66.42 0 0 0 31.38 41.05Z" style="fill:#77c043"/><path d="M12.8 13.52 26 .31A173.77 173.77 0 0 0 1.64 3.5a66.85 66.85 0 0 0-1.43 9.37c4.21.4 8.44.62 12.59.65Z" style="fill:#43c0b9"/><path d="M32.9 0h-1.57L18 13.45A135 135 0 0 0 67 2.68 175.6 175.6 0 0 0 32.9 0Z" style="fill:#f68b1f"/><path d="M71.43 4.61a138.41 138.41 0 0 1-53.61 12.44l18.6 18.59 19.46-19.45 2.51 2.51-19.46 19.46 20.2 20.2a66.2 66.2 0 0 0 13.69-40.25 66 66 0 0 0-1.39-13.5Z" style="fill:#ed1c24"/><path class="cls-6" d="M88.07.42h18.76v4.93H93.49v5.25h11.76v4.92H93.49v9.55h-5.42ZM110.45.42h5.43v19.72h12.28v4.93h-17.71ZM131.54.42h18.59v4.83h-13.2v5h11.61v4.83h-11.61v5.17h13.37v4.83h-18.76ZM154.42.42h5.85l6.47 10.42L173.22.42h5.84v24.65h-5.38V9l-6.94 10.5h-.14l-6.86-10.42v16h-5.32ZM184.52.42h5.42v24.65h-5.42ZM195.4.42h5l11.54 15.18V.42h5.35v24.65h-4.61L200.75 9.4v15.67h-5.35ZM221.41 12.81v-.07A12.65 12.65 0 0 1 234.33 0 13.53 13.53 0 0 1 244 3.38l-3.4 4.12a9.05 9.05 0 0 0-6.45-2.5c-3.94 0-7.07 3.48-7.07 7.67v.07c0 4.51 3.1 7.82 7.46 7.82a8.66 8.66 0 0 0 5.11-1.48v-3.52h-5.46v-4.68h10.7v10.7a16 16 0 0 1-10.52 3.91c-7.68 0-12.96-5.39-12.96-12.68ZM88.07 45.91v-.07a12.53 12.53 0 0 1 12.85-12.75 12.72 12.72 0 0 1 9.71 3.8l-3.45 4a9.12 9.12 0 0 0-6.3-2.78c-4.15 0-7.15 3.45-7.15 7.68v.07c0 4.22 2.93 7.74 7.15 7.74 2.82 0 4.54-1.13 6.48-2.89l3.45 3.49a12.61 12.61 0 0 1-10.11 4.4 12.43 12.43 0 0 1-12.63-12.69ZM112.64 45.91v-.07a12.74 12.74 0 0 1 13.13-12.75c7.6 0 13.06 5.67 13.06 12.68v.07a12.74 12.74 0 0 1-13.13 12.74c-7.61 0-13.06-5.67-13.06-12.67Zm20.52 0v-.07a7.49 7.49 0 0 0-7.46-7.75 7.37 7.37 0 0 0-7.39 7.68v.07a7.48 7.48 0 0 0 7.46 7.74 7.37 7.37 0 0 0 7.39-7.67ZM143 33.51h5.42v19.72h12.28v4.93H143ZM164 33.51h5.42v19.72h12.29v4.93H164ZM185.12 33.51h18.59v4.83H190.5v5h11.62v4.82H190.5v5.17h13.38v4.83h-18.76ZM206.91 45.91v-.07a12.65 12.65 0 0 1 12.92-12.75 13.55 13.55 0 0 1 9.68 3.38l-3.42 4.12a9.09 9.09 0 0 0-6.44-2.5c-3.94 0-7.07 3.49-7.07 7.68v.07c0 4.5 3.09 7.81 7.46 7.81a8.6 8.6 0 0 0 5.1-1.48v-3.52h-5.45V44h10.7v10.7a16 16 0 0 1-10.53 3.91c-7.67-.03-12.95-5.42-12.95-12.7ZM234.89 33.51h18.59v4.83h-13.2v5h11.62v4.82h-11.62v5.17h13.38v4.83h-18.77ZM96.72 84.7h-3.63V70.33h-5v-3h13.68v3h-5ZM105 69.45a8.95 8.95 0 0 1 12.24 0 9.22 9.22 0 0 1 2.27 6.55 9.21 9.21 0 0 1-2.27 6.56 8.94 8.94 0 0 1-12.23 0 9.21 9.21 0 0 1-2.26-6.56 9.22 9.22 0 0 1 2.25-6.55Zm9.51 2.22a4.38 4.38 0 0 0-6.79 0 8.08 8.08 0 0 0 0 8.68 4.41 4.41 0 0 0 6.8 0 8.05 8.05 0 0 0 0-8.68ZM126 78.34v6.36h-3.63V67.33h7.11a6.74 6.74 0 0 1 4.63 1.47 5.19 5.19 0 0 1 1.65 4.07 5.5 5.5 0 0 1-.83 3 4.64 4.64 0 0 1-2.32 1.91l3.66 6.9h-4.12l-3.24-6.36Zm0-8.17v5.54h3.13a3 3 0 0 0 2.14-.74 3 3 0 0 0 0-4 3 3 0 0 0-2.14-.75ZM140.33 69.45a8.95 8.95 0 0 1 12.24 0 9.26 9.26 0 0 1 2.26 6.55 9.21 9.21 0 0 1-2.27 6.56 8.94 8.94 0 0 1-12.23 0 9.21 9.21 0 0 1-2.26-6.56 9.22 9.22 0 0 1 2.26-6.55Zm9.51 2.22a4.38 4.38 0 0 0-6.79 0 8.08 8.08 0 0 0 0 8.68 4.41 4.41 0 0 0 6.8 0 8.05 8.05 0 0 0 0-8.68ZM161.13 84.7h-3.48V67.33h3l8.11 11.31h.1V67.33h3.48V84.7h-3l-8.13-11.38h-.11ZM183.55 84.7h-3.64V70.33h-5v-3h13.69v3h-5ZM191.83 69.45a9 9 0 0 1 12.25 0 9.26 9.26 0 0 1 2.25 6.55 9.21 9.21 0 0 1-2.26 6.56 8.95 8.95 0 0 1-12.24 0 9.25 9.25 0 0 1-2.25-6.56 9.26 9.26 0 0 1 2.25-6.55Zm9.52 2.22a4.4 4.4 0 0 0-6.8 0 8.05 8.05 0 0 0 0 8.68 4.41 4.41 0 0 0 6.8 0 8.1 8.1 0 0 0 0-8.68Z"/></svg>